<svg xmlns="http://www.w3.org/2000/svg" viewBox="0 0 512 512" width="512" height="512">
  <rect width="512" height="512" rx="112" fill="#0D8F41"/>
  <g transform="translate(91,168.3) scale(1.2992)">
    <path d="M217.206 55.5369C228.188 44.8917 221.782 28.1176 217.206 21.0611C213.7 13.5303 218.666 13.4878 221.587 14.4079C224.605 15.8192 231.226 21.9684 233.563 35.2748C235.899 48.5813 228.305 58.1579 224.216 61.2829C216.972 63.9442 216.524 58.5611 217.206 55.5369Z" fill="#fff"/>
    <path d="M235.669 63.3852C252.732 35.5803 237.997 20.2752 233.29 9.77773C229.685 -1.42545 234.467 -0.591902 237.471 0.776877C240.575 2.87637 251.192 12.7847 253.595 32.58C255.999 52.3752 247.085 67.2843 242.879 71.9332C235.429 75.8922 234.968 67.8841 235.669 63.3852Z" fill="#fff"/>
    <path d="M3.13724 111.439C28.599 84.753 63.7891 93.9089 78.2015 101.823C92.3135 111.74 123.84 127.367 148.161 114.445C172.482 101.522 176.385 80.185 178.487 66.962C178.541 57.6457 189.245 40.27 195.302 35.407C190.097 31.5002 174.524 24.1073 153.866 25.7903C128.044 27.8939 124.741 57.6457 117.535 72.9725C111.77 85.2338 98.719 96.3131 92.914 100.32C89.311 102.243 81.6044 97.5152 78.2015 94.9107C110.029 74.1745 107.627 55.8426 115.157 40.5402C122.688 25.2377 134.049 14.3704 155.367 10.4636C172.422 7.33811 198.705 20.7815 209.714 27.8939C217.821 33.1312 218.421 39.0133 215.119 39.0133C192.9 42.6196 190.297 64.4576 188.696 75.3766C181.19 120.155 155.668 129.771 131.947 134.279C108.227 138.787 87.2092 121.056 60.1861 111.439C38.5676 103.746 22.0534 116.548 15.4478 121.056C-1.60682 128.75 -2.56758 116.248 3.13724 111.439Z" fill="#fff"/>
    <ellipse cx="161" cy="44.5" rx="7" ry="7.5" fill="#fff"/>
  </g>
</svg>
